<svg enable-background="new 0 0 512 512" viewBox="0 0 512 512" xmlns="http://www.w3.org/2000/svg" xmlns:xlink="http://www.w3.org/1999/xlink"><linearGradient id="a" gradientTransform="matrix(1.7239 0 0 -1.7239 35.4714 986.7104)" gradientUnits="userSpaceOnUse" x1="55.4978" x2="165.1978" y1="423.8696" y2="423.8696"><stop offset="0" stop-color="#f3f1e8"/><stop offset="1" stop-color="#e3e0d0"/></linearGradient><circle cx="256" cy="256" fill="#273b7a" r="256"/><path d="m308.445 506.613c99.231-20.661 177.386-98.766 198.125-197.968l-132.015-132.307-148.368 100.992 17.613 17.613-106.632 40.431z" fill="#121149"/><path d="m358.538 169.52h-205.078c-12.278 0-22.316 10.049-22.316 22.319v128.326c0 12.262 10.037 22.313 22.316 22.313h205.078c12.278 0 22.318-10.05 22.318-22.313v-128.325c0-12.269-10.04-22.32-22.318-22.32z" fill="url(#a)"/><path d="m255.073 289.797-92.964 50.34.152 2.343 93.896-50.612z" fill="#b5b4b0"/><path d="m360.431 190.857-59.566 45.87-44.709 55.143 90.905 50.612h11.476c8.242 0 15.46-4.534 19.328-11.23l-7.697-51.131z" fill="#b5b4b0"/><path d="m256.157 291.868 124.699-96.547v-3.481c0-12.271-10.038-22.319-22.318-22.319h-4.965l-94.441 80.618-98.256-80.618h-7.416c-12.278 0-22.316 10.049-22.316 22.319v128.326c0 12.262 10.037 22.313 22.316 22.313h8.801v-125.132z" fill="#dd4b40"/><path d="m380.856 320.165v-124.845l-33.794 26.164v120.994h11.476c12.278.002 22.318-10.049 22.318-22.313z" fill="#a43026"/></svg>