<svg enable-background="new 0 0 579.698 579.698" height="579.698" viewBox="0 0 579.698 579.698" width="579.698" xmlns="http://www.w3.org/2000/svg"><path d="m63.671 428.914v113.088c0 20.836 16.86 37.696 37.696 37.696h376.964c20.836 0 37.696-16.86 37.696-37.696v-113.088c0-62.47-50.578-113.089-113.088-113.089h-9.667c-5.07 0-9.134 4.122-9.62 9.168-4.611 47.751-44.845 85.074-93.805 85.074s-89.193-37.323-93.801-85.074c-.486-5.046-4.55-9.168-9.621-9.168h-9.667c-62.435 0-113.087 50.619-113.087 113.089z"/><path d="m289.848 309.938c74.875 0 135.598-69.389 135.598-154.971s-60.723-154.967-135.598-154.967-135.598 69.388-135.598 154.971c0 85.582 60.723 154.967 135.598 154.967zm0-154.967c35.377 0 64.888-17.895 74.192-42.222 13.924 16.778 22.663 38.06 22.663 61.595 0 53.498-43.397 96.855-96.855 96.855-53.498 0-96.855-43.357-96.855-96.855 0-23.535 61.478-19.373 96.855-19.373z"/></svg>