<svg enable-background="new 0 0 512 512" viewBox="0 0 512 512" xmlns="http://www.w3.org/2000/svg"><circle cx="256" cy="256" fill="#ef72ad" r="256"/><path d="m256 0c-11.317 0-22.461.744-33.391 2.167 125.607 16.363 222.608 123.766 222.608 253.833s-97.002 237.47-222.609 253.833c10.931 1.423 22.075 2.167 33.392 2.167 141.385 0 256-114.616 256-256s-114.615-256-256-256z" fill="#ee539e"/><g fill="#fff"><path d="m350.84 91.826h-189.68c-38.231 0-69.334 31.103-69.334 69.334v189.682c0 38.231 31.103 69.334 69.334 69.334h189.682c38.231 0 69.334-31.103 69.334-69.334v-189.682c-.002-38.231-31.105-69.334-69.336-69.334zm52.638 259.014c0 29.025-23.613 52.638-52.638 52.638h-189.68c-29.025 0-52.638-23.613-52.638-52.638v-189.68c0-29.025 23.613-52.638 52.638-52.638h189.682c29.025 0 52.638 23.613 52.638 52.638v189.68z"/><path d="m256 169.739c-47.565 0-86.261 38.696-86.261 86.261s38.696 86.261 86.261 86.261 86.261-38.696 86.261-86.261-38.696-86.261-86.261-86.261zm0 155.826c-38.358 0-69.565-31.208-69.565-69.565s31.208-69.565 69.565-69.565 69.565 31.208 69.565 69.565-31.207 69.565-69.565 69.565z"/><circle cx="345.043" cy="155.826" r="22.261"/></g></svg>