<svg viewBox="0 0 500 500" xmlns="http://www.w3.org/2000/svg"><ellipse cx="253.74" cy="341.76" fill="#f5f5f5" rx="235.29" ry="135.85"/><g fill="#e0e0e0"><ellipse cx="408.88" cy="369.84" rx="66.75" ry="38.54"/><path d="m239.95 390.63-75.3-43.49 86.07-49.69 75.31 43.48z"/><path d="m34.91 377.18 97.12 56.07 81.46-47.02-97.12-56.07z"/></g><path d="m178.52 113.63v-5.52a1.87 1.87 0 0 0 -1.1-1.47l-33.33-19.12a5.7 5.7 0 0 0 -5.12 0l-95.79 55a1.87 1.87 0 0 0 -1.1 1.47v5.52a1.86 1.86 0 0 0 1.1 1.47l33.32 19.09a5.7 5.7 0 0 0 5.12 0l95.79-55a1.86 1.86 0 0 0 1.1-1.47z" fill="#f0f0f0"/><path d="m43.18 145.43 33.32 19.12a5.64 5.64 0 0 0 5.12 0l95.79-55c1.41-.81 1.41-2.12 0-2.94l-33.32-19.09a5.7 5.7 0 0 0 -5.12 0l-95.79 55c-1.41.79-1.41 2.1 0 2.91z" fill="#fafafa"/><path d="m79.06 165.17v5.51a5.35 5.35 0 0 1 -2.56-.61l-33.32-19.07a1.86 1.86 0 0 1 -1.1-1.47v-5.53a1.43 1.43 0 0 1 .21-.63c-.39.71-.1 1.53.89 2.1l33.32 19.09a5.21 5.21 0 0 0 2.56.61z" fill="#e0e0e0"/><path d="m96.96 118.53 28.23 16.09 46.63-26.76-28.22-16.1z" fill="#e0e0e0"/><path d="m125.51 133.4-27.23-15.63a11.27 11.27 0 0 0 -.15-7.06l27.06 15.46s.52 1.71.32 7.23z" fill="#fff"/><path d="m123.8 124a5.75 5.75 0 0 1 2.62 4.5v5.26c0 1.66-1.18 2.33-2.62 1.51l-26.8-15.44v-1.3l26.48 15.1c.87.5 1.57.09 1.57-.9v-4.88a3.44 3.44 0 0 0 -1.57-2.7l-26.48-15.15v-1.48z" fill="#ebebeb"/><path d="m97 108.57 46.6-26.77 26.83 15.4a5.74 5.74 0 0 1 2.62 4.51v5.29a1.8 1.8 0 0 1 -.77 1.68l-46.63 26.77a1.84 1.84 0 0 0 .76-1.68v-5.27a5.71 5.71 0 0 0 -2.62-4.5z" fill="#fafafa"/><path d="m125.65 125.91a5.2 5.2 0 0 1 .77 2.56v5.27a1.84 1.84 0 0 1 -.76 1.68l46.63-26.77a1.8 1.8 0 0 0 .77-1.68v-5.26a5.2 5.2 0 0 0 -.77-2.56z" fill="#f0f0f0"/><path d="m68.26 78.48-.27 3.56 31.52 16.91.71-2.08z" fill="#ebebeb"/><path d="m99.8 97.7-30.53-17.62-5.31 3.06 31.13 18.21z" fill="#fff"/><path d="m89.36 99.46-3 35.38a2.5 2.5 0 0 0 1.13 2l17.71 10.25a2.1 2.1 0 0 0 .92.26l-11-44.81a2.28 2.28 0 0 1 -.92-.25l-1.27-.74z" fill="#e0e0e0"/><path d="m96.44 102.25 3.16-2.71 2.31-2c.24-.38.52-.66.37-1l10.86 44.48c.15.31.19 1-.24 1.26l-5.47 4.68a2.35 2.35 0 0 1 -1.35.26l-11-44.81a2.41 2.41 0 0 0 1.36-.16z" fill="#f0f0f0"/><path d="m101.92 96.25c.62.36.47.76 0 1.3l-5.48 4.69a2.44 2.44 0 0 1 -2.26 0l-4.82-2.78c-.63-.36-.74-.88-.25-1.16a2.28 2.28 0 0 1 2 .14l3.8 2.2a.83.83 0 0 0 .75 0l4-3.48c.21-.12.21-.31 0-.43l-31.4-18.25 1.5-.87z" fill="#fafafa"/><path d="m59.16 80.19 30.03 17.34v57.14l-30.03-17.35z" fill="#ebebeb"/><path d="m88.22 98.48-29.06-16.68a12.28 12.28 0 0 1 -6.65 3.64l28.82 16.61s1.86-.44 6.89-3.57z" fill="#fff"/><path d="m78.54 102a6.23 6.23 0 0 0 5.58 0l4.88-2.86c1.54-.89 1.54-2.32 0-3.21l-28.63-16.44-1.21.7 28.17 16.27a1 1 0 0 1 0 1.92l-4.55 2.62a3.73 3.73 0 0 1 -3.35 0l-28.16-16.28-1.38.79z" fill="#fafafa"/><path d="m49.9 85.51v57.13l28.64 16.44a6.23 6.23 0 0 0 5.58 0l4.9-2.81a1.94 1.94 0 0 0 1.15-1.61v-57.13a1.92 1.92 0 0 1 -1.17 1.6l-4.88 2.87a6.23 6.23 0 0 1 -5.58 0z" fill="#ebebeb"/><path d="m81.33 102.61a5.75 5.75 0 0 0 2.79-.66l4.88-2.82a1.92 1.92 0 0 0 1.15-1.6v57.13a1.94 1.94 0 0 1 -1.15 1.61l-4.9 2.81a5.75 5.75 0 0 1 -2.79.66z" fill="#f0f0f0"/><g fill="#2196F3"><path d="m322.57 310c-.15-2.53-.49-5.56-.9-9.08-1.53-13.36-3.62-31.66 1.92-49.19 3.37-10.67 11.49-23.32 24.17-26.83 2.82-.78 9.64-1.93 12.26 4.12a8.52 8.52 0 0 1 .65 2.75c.27 3.84-1.46 7.23-3.38 10.32-2.21 3.59-4.77 7-7.25 10.32-2.34 3.14-4.77 6.38-6.89 9.74a84.16 84.16 0 0 0 -6 11.43l-.81-.35a84.82 84.82 0 0 1 6-11.55c2.13-3.39 4.57-6.65 6.93-9.8 2.46-3.3 5-6.7 7.2-10.25 1.84-3 3.5-6.21 3.25-9.8a7.58 7.58 0 0 0 -.58-2.46c-2.34-5.41-8.62-4.33-11.21-3.62-12.34 3.42-20.27 15.8-23.57 26.24-5.48 17.36-3.4 35.55-1.88 48.83.4 3.53.75 6.58.9 9.13z"/><path d="m323.47 324.54a.71.71 0 0 1 -.2 0 1.25 1.25 0 0 1 -.89-.69 2.3 2.3 0 0 1 0-1.53 9.93 9.93 0 0 0 0-2.89c0-.54-.09-1.11-.09-1.62v-6.21a75.44 75.44 0 0 1 9.57-31.73c4.88-8.49 10.28-14.14 17-17.8a32.15 32.15 0 0 1 11.7-3.75 14.68 14.68 0 0 1 10.22 2.7c3.05 2.41 4.42 6.54 3.27 9.81-.81 2.29-2.66 4-4.55 5.55-3.37 2.75-7.05 5.21-10.6 7.59-2.95 2-6 4-8.85 6.2a84.23 84.23 0 0 0 -21.53 24.65c-.9 1.55-1.75 3.15-2.53 4.75l-.32.63a14.79 14.79 0 0 0 -.82 1.77c-.05.13-.1.4-.17.71a3.73 3.73 0 0 1 -.53 1.61 1 1 0 0 1 -.68.25zm38.53-65.39c-.45 0-.9 0-1.36.06a30.88 30.88 0 0 0 -11.35 3.64c-6.56 3.57-11.85 9.12-16.65 17.46a74.64 74.64 0 0 0 -9.45 31.33v6.15c0 .48 0 1 .09 1.55a10.41 10.41 0 0 1 0 3.16 1.59 1.59 0 0 0 0 1 .38.38 0 0 0 .26.2 4.06 4.06 0 0 0 .36-1.17 6.12 6.12 0 0 1 .2-.82 15.11 15.11 0 0 1 .86-1.87l.31-.62c.8-1.62 1.66-3.23 2.56-4.8a87.73 87.73 0 0 1 6.21-9.32 84.39 84.39 0 0 1 15.55-15.59c2.88-2.2 5.94-4.25 8.9-6.23 3.54-2.37 7.19-4.82 10.54-7.54 1.78-1.45 3.53-3.08 4.27-5.16 1-2.93-.23-6.64-3-8.83a13.15 13.15 0 0 0 -8.3-2.6z"/><path d="m322.72 316h-.11a.43.43 0 0 1 -.32-.53c8.25-32.9 31.06-47.58 43.24-51.07a.44.44 0 0 1 .54.3.45.45 0 0 1 -.3.55c-12 3.43-34.47 17.92-42.62 50.43a.45.45 0 0 1 -.43.32z"/><path d="m322.67 289a.45.45 0 0 1 -.41-.48c2.63-35.53 25.87-55 28.51-57.09a.43.43 0 0 1 .62.07.44.44 0 0 1 -.07.62c-2.61 2.07-25.58 21.31-28.17 56.47a.46.46 0 0 1 -.48.41z"/></g><path d="m319.9 165.09-55.61-32.09a3 3 0 0 0 -3-.29l-4 2.31a3 3 0 0 0 -1.27 2.77v152.21a9.45 9.45 0 0 0 4.28 7.4l55.6 32.05a3 3 0 0 0 3 .3l4-2.32a3 3 0 0 0 1.25-2.76v-152.18a9.44 9.44 0 0 0 -4.25-7.4z" fill="#263238"/><path d="m268 292.61-4 2.31v12.66a2.36 2.36 0 0 0 1.07 1.85l1.87 1.08a2.37 2.37 0 0 0 2.14 0l1.87-1.08a3.8 3.8 0 0 0 1.47-1.79l3.61-10.4z" fill="#263238"/><path d="m264 307.58a2.36 2.36 0 0 0 1.07 1.85l1.87 1.08a1 1 0 0 0 1.47-.55l3.59-10.41-8-4.63z" fill="#37474f"/><path d="m308.12 315.7-4 2.32v12.65a2.37 2.37 0 0 0 1.06 1.86l1.88 1.08a2.35 2.35 0 0 0 2.13 0l1.88-1.08a3.8 3.8 0 0 0 1.47-1.79l3.6-10.41z" fill="#263238"/><path d="m304.12 330.67a2.37 2.37 0 0 0 1.06 1.86l1.88 1.08a1 1 0 0 0 1.47-.55l3.61-10.41-8-4.63z" fill="#37474f"/><path d="m260.56 135.43 55.6 32a9.47 9.47 0 0 1 4.28 7.41v152.21a2.61 2.61 0 0 1 -4.28 2.47l-55.6-32.06a9.44 9.44 0 0 1 -4.27-7.4v-152.17a2.6 2.6 0 0 1 4.27-2.46z" fill="#37474f"/><path d="m179.82 343.48 60.14 34.72 84.2-48.61-4.01-2.32-60.14-34.72-80.19 46.3z" fill="#455a64"/><path d="m239.96 378.2v-4.63l84.2-48.61v4.63z" fill="#263238"/><g fill="#fafafa"><path d="m240.34 371.46-.61-.41c10.67-16.15 10.6-44.05 9.73-51.05-.07-.47-.12-.76-.13-.87l.73-.12c0 .22.08.48.12.79.78 4.95 5.19 31.84 10.41 40l-.62.4c-4.13-6.41-7.66-23.71-9.43-33.69.11 11.33-1.54 31.92-10.2 44.95z"/><path d="m275.46 346.8c-.91-.27-22.17-6.71-24.13-16.09l.73-.15c1.86 8.95 23.39 15.47 23.61 15.54z"/><path d="m254 343-.54-2.29a1.89 1.89 0 0 0 -1.76-1.56 1.74 1.74 0 0 0 -1.78.89l-.69-.29a2.48 2.48 0 0 1 2.53-1.34 2.6 2.6 0 0 1 1.89 1 3.68 3.68 0 0 1 1.35-2.41 1.85 1.85 0 0 1 1.82.06l-.33.66a1.16 1.16 0 0 0 -1.13-.07c-.85.48-1.18 2.33-1.23 3z"/><path d="m256.09 350.63-.66-2.08c-.75-2.35-2-3.7-3.48-3.79a3.18 3.18 0 0 0 -2.95 1.85l-.67-.32a3.89 3.89 0 0 1 3.67-2.29c.89.05 2.42.53 3.56 2.85.25-1.83 1-4.77 2.93-6a4.6 4.6 0 0 1 4.51.05l-.31.67a3.89 3.89 0 0 0 -3.8-.09c-2.57 1.6-2.74 6.89-2.74 6.95z"/><path d="m247.06 355.71-.66-.34c1.48-2.85 4.73-4.9 7.55-4.76a4 4 0 0 1 3.1 1.53 10.85 10.85 0 0 1 4.74-7.08 9.21 9.21 0 0 1 9-.67l-.29.67a8.53 8.53 0 0 0 -8.28.62 9.91 9.91 0 0 0 -4.5 7.68v1.89l-.7-1.76a3.28 3.28 0 0 0 -3.06-2.14c-2.59-.13-5.54 1.75-6.9 4.36z"/><path d="m243 366.75-.65-.36c.9-1.64 5.69-9.88 11.36-11.37a5.89 5.89 0 0 1 4.78.69l-.38.63a5.22 5.22 0 0 0 -4.21-.61c-4.16 1.1-8.46 6.62-10.9 11.02z"/></g><path d="m316.14 278.66v4.63l-76.18 43.98-60.14-34.72v-4.63l76.18-43.98z" fill="#263238"/><path d="m316.14 278.66-76.18 43.98-60.14-34.72 76.18-43.98z" fill="#455a64"/><path d="m316.14 227.74v4.62l-76.18 43.99-60.14-34.73v-4.62l76.18-43.99z" fill="#263238"/><path d="m316.14 227.74-76.18 43.98-60.14-34.72 76.18-43.99z" fill="#455a64"/><path d="m239.7 211.33-55.6-32.05a3 3 0 0 0 -3-.3c-.72.41-3.28 1.9-4 2.31a3 3 0 0 0 -1.26 2.77v152.17a9.45 9.45 0 0 0 4.28 7.4l55.6 32.06a3 3 0 0 0 3 .3c.72-.42 3.3-1.9 4-2.33a3 3 0 0 0 1.28-2.76v-152.16a9.45 9.45 0 0 0 -4.3-7.41z" fill="#263238"/><path d="m239.96 234.69 4.02-2.32v-13.9l-4.03 2.32z" opacity=".2"/><path d="m320.16 188.39 4.02-2.31v-13.9l-4.03 2.32z" opacity=".2"/><path d="m187.84 338.85-4 2.31v12.66a2.36 2.36 0 0 0 1.07 1.85l1.87 1.08a2.37 2.37 0 0 0 2.14 0l1.87-1.08a3.82 3.82 0 0 0 1.47-1.78l3.61-10.41z" fill="#263238"/><path d="m183.83 353.82a2.36 2.36 0 0 0 1.07 1.85l1.87 1.08a1 1 0 0 0 1.47-.55l3.61-10.41-8-4.63z" fill="#37474f"/><path d="m227.93 362-4 2.31v12.66a2.35 2.35 0 0 0 1.06 1.85l1.88 1.08a2.35 2.35 0 0 0 2.13 0l1.88-1.08a3.88 3.88 0 0 0 1.47-1.78l3.6-10.41z" fill="#263238"/><path d="m223.93 376.92a2.35 2.35 0 0 0 1.06 1.85l1.88 1.08a1 1 0 0 0 1.47-.55l3.6-10.41-8-4.63z" fill="#37474f"/><path d="m180.08 181.6 55.61 32.05a9.46 9.46 0 0 1 4.27 7.41v157.14s-3.09-1.83-4.27-2.51l-55.6-32.06a9.45 9.45 0 0 1 -4.28-7.4v-152.17a2.6 2.6 0 0 1 4.27-2.46z" fill="#37474f"/><path d="m235.69 213.65-55.61-32.05a2.6 2.6 0 0 0 -4.27 2.46v13.59l64.15 37v-13.59a9.46 9.46 0 0 0 -4.27-7.41z" opacity=".2"/><g fill="#fafafa"><path d="m312.13 228.11a.38.38 0 0 1 -.37-.37v-45.66l-43.55 25.14a.35.35 0 0 1 -.5-.13.37.37 0 0 1 .13-.51l44.16-25.46a.35.35 0 0 1 .37 0 .37.37 0 0 1 .18.32v46.3a.37.37 0 0 1 -.42.37z"/><path d="m304.11 216.53h-.11a.37.37 0 0 1 -.28-.44l7.46-32.31-14.8 25.63a.36.36 0 0 1 -.5.14.37.37 0 0 1 -.14-.51l16-27.78a.38.38 0 0 1 .46-.16.37.37 0 0 1 .22.43l-8 34.73a.36.36 0 0 1 -.31.27z"/><path d="m288.08 205a.36.36 0 0 1 -.27-.12.37.37 0 0 1 0-.52l24.06-23.15a.37.37 0 0 1 .52 0 .38.38 0 0 1 0 .53l-24.06 23.14a.36.36 0 0 1 -.25.12z"/><path d="m312.13 220.72a.38.38 0 0 1 -.37-.37c0-6.06-6.76-6.47-7.05-6.48a.39.39 0 0 1 -.28-.15.36.36 0 0 1 -.06-.3 7.19 7.19 0 0 0 -2.31-6.81 3.45 3.45 0 0 0 -2.66-1 1.85 1.85 0 0 0 -1.27.86.37.37 0 0 1 -.43.17.37.37 0 0 1 -.26-.38c0-.23.41-5.62-4.33-6.15a.38.38 0 0 1 -.29-.2.37.37 0 0 1 0-.34s2.1-3.93 1.29-5.86a1.56 1.56 0 0 0 -1.07-.92.36.36 0 0 1 -.25-.46.38.38 0 0 1 .46-.25 2.27 2.27 0 0 1 1.54 1.35c.77 1.83-.53 4.86-1.09 6 3.68.71 4.36 4.18 4.46 5.9a2.82 2.82 0 0 1 1.1-.47 4 4 0 0 1 3.27 1.21 8 8 0 0 1 2.63 7.12c1.62.21 7.34 1.34 7.33 7.18a.37.37 0 0 1 -.36.35z"/><path d="m312.13 210.74a.37.37 0 0 1 -.37-.34c-.16-2.12-1.39-4.86-2.94-5.54a1.73 1.73 0 0 0 -1.87.3.38.38 0 0 1 -.41 0 .37.37 0 0 1 -.19-.36s.33-3.75-1.36-5.3a3 3 0 0 0 -2.68-.6.36.36 0 0 1 -.35-.12.38.38 0 0 1 -.07-.37c.34-.93 1-3.54.11-4.47-.42-.43-1.19-.47-2.3-.11a.37.37 0 0 1 -.42-.14.38.38 0 0 1 0-.44c.62-.78 2.15-3.06 1.77-4.15a.92.92 0 0 0 -.74-.56.37.37 0 0 1 -.27-.45.35.35 0 0 1 .44-.27 1.62 1.62 0 0 1 1.27 1c.41 1.19-.59 3-1.29 4a2.28 2.28 0 0 1 2.06.53c1.1 1.14.57 3.55.24 4.68a3.48 3.48 0 0 1 2.72.85c1.49 1.36 1.65 4 1.63 5.21a2.35 2.35 0 0 1 2 0c1.89.83 3.2 3.78 3.39 6.17a.36.36 0 0 1 -.34.39z"/></g><path d="m333.67 165.24a3 3 0 0 0 -1.76-2.47l-59.61-34.42a9.47 9.47 0 0 0 -8.55 0l-91.68 52.94a3 3 0 0 0 -1.76 2.47v4.63a3 3 0 0 0 1.76 2.47l59.61 34.41a9.41 9.41 0 0 0 8.55 0l91.68-52.93a3 3 0 0 0 1.76-2.47z" fill="#37474f"/><path d="m231.68 220.64-59.61-34.41c-2.36-1.37-2.36-3.58 0-4.94l91.68-52.94a9.47 9.47 0 0 1 8.55 0l59.61 34.42c2.37 1.37 2.37 3.57 0 4.94l-91.68 52.93a9.41 9.41 0 0 1 -8.55 0z" fill="#455a64"/><path d="m320.15 179.12-28.06 34.73-48.11 27.78-.01-18.52z" opacity=".1"/><path d="m316.14 232.36-24.05 32.41-48.11 27.79v-18.53z" opacity=".1"/><path d="m316.14 283.29-24.05 32.41-48.11 27.79v-18.53z" opacity=".1"/><path d="m205.78 384.44-73.76 42.59-83.06-48.07 73.76-42.58z" fill="#2196F3"/><path d="m205.78 384.44-73.76 42.59-83.06-48.07 73.76-42.58z" opacity=".5"/><path d="m122.72 278.65v57.73l-73.76 42.58v-57.72z" fill="#2196F3"/><path d="m122.72 278.65v57.73l-73.76 42.58v-57.72z" opacity=".23"/><path d="m132.02 369.3v57.73l-83.06-48.07v-57.72z" fill="#2196F3"/><path d="m132.02 369.3v57.73l-83.06-48.07v-57.72z" opacity=".38"/><path d="m205.78 326.71v57.73l-83.06-48.06v-57.73z" fill="#2196F3"/><path d="m205.78 326.71v57.73l-83.06-48.06v-57.73z" opacity=".4"/><path d="m205.78 384.44v-57.73l-73.76 42.59v57.73z" fill="#2196F3"/><path d="m205.78 384.44v-57.73l-73.76 42.59v57.73z" opacity=".23"/><path d="m122.72 278.65.1-31.96 82.86 48.12.1 31.9z" fill="#2196F3"/><path d="m122.72 278.65.1-31.96 82.86 48.12.1 31.9z" opacity=".2"/><path d="m132.02 369.3 6.92-27.96 73.09-42.2-6.25 27.57z" fill="#2196F3"/><path d="m132.02 369.3 6.92-27.96 73.09-42.2-6.25 27.57z" opacity=".3"/><path d="m48.96 321.24-8.8-29 73.76-42.58 8.8 28.99z" fill="#2196F3"/><path d="m48.96 321.24-8.8-29 73.76-42.58 8.8 28.99z" opacity=".1"/><path d="m48.96 321.24-17.36-23.97 83.07 48.06 17.35 23.97z" fill="#2196F3"/><path d="m48.96 321.24-17.36-23.97 83.07 48.06 17.35 23.97z" opacity=".45"/><g fill="#fff"><g opacity=".7"><path d="m153.74 409.86a.46.46 0 0 1 -.46-.45v-10.16a.47.47 0 0 1 .46-.46.46.46 0 0 1 .45.46v10.16a.45.45 0 0 1 -.45.45z"/><path d="m152.41 402.77a.58.58 0 0 1 -.18 0 .47.47 0 0 1 -.24-.6l1.62-3.73 1.8 2.08a.46.46 0 0 1 -.69.6l-.85-1-1 2.4a.47.47 0 0 1 -.46.25z"/><path d="m157.93 407.47a.46.46 0 0 1 -.45-.46v-10.15a.45.45 0 1 1 .9 0v10.14a.46.46 0 0 1 -.45.47z"/><path d="m156.6 400.38a.58.58 0 0 1 -.18 0 .45.45 0 0 1 -.23-.6l1.61-3.78 1.8 2.07a.46.46 0 0 1 0 .64.45.45 0 0 1 -.64 0l-.85-1-1 2.4a.46.46 0 0 1 -.51.27z"/></g><g opacity=".7"><path d="m141.65 416.75a1 1 0 0 1 -.49-.12 1.2 1.2 0 0 1 -.55-1.09v-1.25a.46.46 0 0 1 .46-.45.45.45 0 0 1 .45.45v1.25c0 .18 0 .28.09.3s.14 0 .29-.08a2.65 2.65 0 0 0 .85-2.05v-5.2a.45.45 0 1 1 .9 0v5.2a3.44 3.44 0 0 1 -1.29 2.83 1.41 1.41 0 0 1 -.71.21z"/><path d="m136.88 412.56v-.78a12.87 12.87 0 0 1 5.79-10c1.64-.94 3.2-1.08 4.4-.38a4.33 4.33 0 0 1 1.86 4v.26zm8.51-10.74a4.7 4.7 0 0 0 -2.26.7 12 12 0 0 0 -5.3 8.45l10.17-5.88a3.37 3.37 0 0 0 -1.41-3 2.38 2.38 0 0 0 -1.2-.27z"/></g><path d="m31.6 297.27 83.07 48.06 17.35 23.97-18.27-23.12z" opacity=".7"/><path d="m205.78 326.71-73.76 42.59v57.73l1.38-56.57z" opacity=".7"/></g><path d="m97.54 303.62c7.61-1.1 14.56-6 19-12.16a29 29 0 0 0 4.5-9.54 20.43 20.43 0 0 0 .46-9.88c-1.37-5.49-6.45-8.74-11.82-9.42a18 18 0 0 0 -8.1.79 13.68 13.68 0 0 0 -6.7 5 8.28 8.28 0 0 0 -1.88 4.36 2.5 2.5 0 0 0 2.24 2.55 7.22 7.22 0 0 0 4.57-1.16 14.49 14.49 0 0 0 4.27-3.64 30.56 30.56 0 0 0 5.54-10.5 21.09 21.09 0 0 0 0-10 18.46 18.46 0 0 0 -4.53-9.21 16.76 16.76 0 0 0 -9.74-4.29 23.72 23.72 0 0 0 -10.74 1 11.49 11.49 0 0 0 -4.13 2.26c-.86.8-1.84 2.12-1.49 3.42s2.25 1.88 3.54 1.71a9.28 9.28 0 0 0 5-2.71 21.35 21.35 0 0 0 3.77-5 8.78 8.78 0 0 0 1.13-4.34c-.13-6.34-7.14-10.44-12.63-11.6a16.25 16.25 0 0 0 -4.51-.3c-.51 0-.2.84.21.81a16.48 16.48 0 0 1 8.5 1.92 14.22 14.22 0 0 1 6.21 5.53 7.61 7.61 0 0 1 -.24 7.74 20.53 20.53 0 0 1 -3.62 4.62c-1.19 1.08-3 2.33-4.67 2.21a1.47 1.47 0 0 1 -1.32-.83 2.13 2.13 0 0 1 .59-1.82 8.37 8.37 0 0 1 3.19-2.14 21 21 0 0 1 9.49-1.56 17 17 0 0 1 9.34 3 14.69 14.69 0 0 1 4.86 7.71 22.64 22.64 0 0 1 .88 9.5 24.35 24.35 0 0 1 -3.63 9c-1.85 3.06-4.17 6-7.65 7.2-.86.31-2.66.76-3-.49s.64-2.79 1.27-3.76a12.72 12.72 0 0 1 5.82-4.91 16.07 16.07 0 0 1 7.29-1.1c4.71.35 9.49 2.81 11.13 7.49a17 17 0 0 1 .26 8.6 27.64 27.64 0 0 1 -3.31 8.84 31.58 31.58 0 0 1 -14.89 12.99c-1.48.64-3 1.18-4.55 1.68-.16.06-.09.46.09.43z" fill="#e0e0e0"/><path d="m65.75 216.8c-4-.29-9.51 2.86-7.55 5.16s7.16-1.42 7.16-1.42-.49 4.65 1.21 5.18 4-3.91 2.3-6.75a5.23 5.23 0 0 0 5-.64c2.42-1.78-.14-3.46-3.55-3.16 0 0 2.44-8-2.49-6.47-2.47.75-3.34 3.64-2.08 8.1z" fill="#2196F3"/><path d="m65.75 216.8c-4-.29-9.51 2.86-7.55 5.16s7.16-1.42 7.16-1.42-.49 4.65 1.21 5.18 4-3.91 2.3-6.75a5.23 5.23 0 0 0 5-.64c2.42-1.78-.14-3.46-3.55-3.16 0 0 2.44-8-2.49-6.47-2.47.75-3.34 3.64-2.08 8.1z" fill="#fff" opacity=".65"/><path d="m69.47 218.5a8 8 0 0 0 -.7-.61c-.35-.27-.72-.53-1.07-.79a9.12 9.12 0 0 0 -1.07-.67 6.65 6.65 0 0 0 -.66-.32 1.83 1.83 0 0 0 -1-.16.5.5 0 0 0 -.4.78 2.5 2.5 0 0 0 1 .66l.54.29c.37.22.7.47 1 .72s.7.49 1 .74a6.53 6.53 0 0 0 1.71 1 .19.19 0 0 0 .18 0c.51-.4-.24-1.35-.53-1.64z" fill="#455a64"/><path d="m388.28 106.79c-4.37 5.88-10.22 38.21-12.43 48.58-10.63-.31-24.85-.81-30.23-1.37-6-.63-18.81-1.86-25.1-1-15.61 2-15 12.26-14.62 14.94.41 3.06 2.6 4.46 11 2.55a28.92 28.92 0 0 1 5.72-.67c.81 0 2.52-.41 3.16.28 1 1-1.89 2.68-2.61 3.14-1.11.72-2.27 1.63-2.5 2.93a1.29 1.29 0 0 0 .41 1.33 1.68 1.68 0 0 0 1.27 0 45.08 45.08 0 0 0 11-4.19 25.52 25.52 0 0 1 4.11-2c2.17-.7 4.41-.29 6.59-.29 4.69 0 29.48 2.46 40.5 3.58 7.63.77 8.44-6.76 11.07-14.39 3.23-9.46 10.88-59.21 10.88-59.21-7.72-1.12-13.02-1.19-18.22 5.79z" fill="#ffa8a7"/><path d="m406.62 100.22c-3.69-.68-12-1.71-16.52 3.34s-5.59 10.35-7.58 18-5.52 21.35-5.52 21.35 5.83 8.37 24.08 6z" fill="#37474f"/><path d="m452.45 364.64-12.83.01-3.69-27.85 16.19-.64z" fill="#ffa8a7"/><path d="m409.85 350.73c-2.18 3.79-9.19 3.48-15 2.14l-.67-27.38 17.15-.68z" fill="#ffa8a7"/><path d="m451.58 188.66c.46 11.85-1.11 81.92-1.11 81.92.43 3.4 3.95 9.33 4.68 21.6 1.07 17.82-2.56 55.82-2.56 55.82s-7.35 3.84-15.27.9c0 0-8.06-55-11-72.58-2.54-15.3-5.8-56.34-5.8-56.34l-6.33 52.6a87.29 87.29 0 0 1 1.43 18.89c-.26 8.18-4.92 47.9-4.92 47.9a28.49 28.49 0 0 1 -16.42.39s-3.82-61.64-4.26-69.11c-.5-8.52-.16-83.73-.16-83.73z" fill="#2196F3"/><path d="m420.54 220s-11.21-3.18-18.85-10c0 0 3.58 6.11 13.72 11.53l-.58 45.91z" opacity=".2"/><path d="m425 387.87c-.41.42-.17 3.19.33 3.91s3.56 3.16 8.87 3.34c5.07.16 9.55-.7 12.44-2.7s4.25-4.13 4.42-7-.26-5.66 1-7.93c1.19-2.09 3.12-4.48 3.51-5.61.87-2.45-.19-5.86-.19-5.86z" fill="#263238"/><path d="m437.8 362.2a11.11 11.11 0 0 1 -.46 3.23 33.1 33.1 0 0 1 -4.83 9.51c-1.46 1.87-3.3 3.44-4.85 5.25a10.39 10.39 0 0 0 -2.88 6.33c-.06 4 4.3 5.15 7.63 5.61a24.28 24.28 0 0 0 10.74-1 9.87 9.87 0 0 0 6.94-8.18c.14-1.11 0-2.23.12-3.34a15.56 15.56 0 0 1 2.81-7.06 21.55 21.55 0 0 0 2.22-3.86c.93-2.5 0-5.23-.76-7.64-.65-2.09-1.39-4.46-2.12-4.23 0 1.11 0 1.21-.71 2-1 1-.95 2.39-2 3.26a14.16 14.16 0 0 0 .62-2.84 1.63 1.63 0 0 0 -.27-1.12 3 3 0 0 0 -1.24-.6 24.26 24.26 0 0 0 -4.85-.91 14.52 14.52 0 0 0 -4.7.15 2.09 2.09 0 0 0 -1.16.73 2.42 2.42 0 0 0 -.37 1.37c0 .65.11 2.28.12 3.34z" fill="#455a64"/><g fill="#f5f5f5"><path d="m434 372.73c1.44-1.16 4.74-1.31 6.56-1.18a10.9 10.9 0 0 1 5.21 1.6 1.17 1.17 0 0 0 1.51-.18 1.11 1.11 0 0 0 -.18-1.68 11.19 11.19 0 0 0 -5.87-1.92c-4.46-.13-5.73.68-5.73.68s-1.99 1.38-1.5 2.68z"/><path d="m430.76 376.93c1.81-1.17 5.46-1.16 7.27-1a10.37 10.37 0 0 1 5.08 1.71 1.16 1.16 0 0 0 1.5-.18 1.1 1.1 0 0 0 -.17-1.68 11.57 11.57 0 0 0 -6-2.08c-4.47-.14-5.59.81-5.59.81a3.68 3.68 0 0 0 -2.09 2.42z"/><path d="m442.83 365.05a11.06 11.06 0 0 0 -5.58.68c-.76.47-1.23 1.73-.72 2a10.31 10.31 0 0 1 4.94-.88 14.6 14.6 0 0 1 4.86 1.14c.39.15.85.37 1.25.57a1.06 1.06 0 0 0 1.45-.51 1 1 0 0 0 -.44-1.26 14.12 14.12 0 0 0 -5.76-1.74z"/></g><path d="m365.53 367.81a4.82 4.82 0 0 0 0 3.56c.44 1.07 5.74 4.39 13.1 4.25a30.68 30.68 0 0 0 15.46-4.62c2.89-1.72 5.82-1.93 9.46-2s8.5-1.62 9.38-3.28.1-4.63.1-4.63z" fill="#263238"/><path d="m396.23 346.31-.57-.15a2.47 2.47 0 0 0 -1-.09 1.8 1.8 0 0 0 -.93.56 18.17 18.17 0 0 0 -2 2.86c-1.65 2.43-5 4.36-8.6 6.09-2.46 1.17-4.85 2.06-7.38 3.05s-6 1.55-8 2.79c-3 1.81-3.57 6.66-.39 8.74 2.76 1.8 10.12 3.95 18 2.11 4.31-1 9.25-5.32 14.85-5.49 3.57-.11 10.33-.79 12.74-3.38.91-1.15 0-5-.81-8.32-.84-3.62-.46-9-2.08-9l-.1 1.81c-.15.54-1.42 1.07-1.82 1.49l-1.44 1.52a7.17 7.17 0 0 1 -2.12 1.72c-1.43.64-3.1.26-4.63-.14-.06 0 .77-2.78.86-3.05a1.2 1.2 0 0 0 .08-.67 1 1 0 0 0 -.43-.53 11.34 11.34 0 0 0 -4.23-1.92z" fill="#455a64"/><g fill="#f5f5f5"><path d="m386.55 353.8a3.31 3.31 0 0 1 2.71-1.63c1.63-.22 4.42 1.1 6.13 2.65a1.33 1.33 0 0 1 -.3 2.18 1.31 1.31 0 0 1 -1.5-.24 10.16 10.16 0 0 0 -7.04-2.96z"/><path d="m381.41 356.37a3.79 3.79 0 0 1 3.18-1.45s4.22.32 6.71 2.88a1.29 1.29 0 0 1 -.28 2.1 1.28 1.28 0 0 1 -1.45-.23 10.14 10.14 0 0 0 -8.16-3.3z"/><path d="m375.76 358.63a4.25 4.25 0 0 1 3.3-1.29 11.43 11.43 0 0 1 6.42 2.89 1.3 1.3 0 0 1 -.28 2.11 1.26 1.26 0 0 1 -1.45-.24 9.73 9.73 0 0 0 -7.99-3.47z"/></g><path d="m428 100.44c4.72.54 10.3.83 14.81 1.42 5.81.76 10.34 6.77 11.76 16.07 1.56 10.24-5 39.6-5 39.6l2.09 34.62c-8.51 6.27-44.75 9.56-62.81-3.48 0 0 .42-58.92 1.83-68 1.94-12.45 5-20.18 19-21.07z" fill="#455a64"/><path d="m460.27 175.44c-1.53 2.56-3.07 5.12-4.65 7.65-.58.94-1.17 1.87-1.78 2.79a6.61 6.61 0 0 1 -1.15 1.21c-.76.52-2.34.19-3.26.22q-6.78.23-13.52 1a2.57 2.57 0 0 0 -2 .86 1.76 1.76 0 0 0 .64 2.24 5.07 5.07 0 0 0 2.43.72l3.9.46a3 3 0 0 1 1.56.5c1.42 1.15-1.29 2.53-2.1 3.09a29.56 29.56 0 0 1 -5.19 2.88c-8.13 3.42-9.12 5.9-7.62 8.72 1.3 2.45 6.92 11.36 21.2 3.69 5.75-3.09 14.5-12.85 18.49-17.57 5.74-6.81 15.45-22 15.45-22 5.52-7.58 6.23-10.69 6.36-13.84s-17-27.38-22.82-35.89-8.59-18.86-23.4-20.28c0 0-5.64 17.88 3.7 29.45l21.57 30.09s-5.71 10.5-7.81 14.01z" fill="#ffa8a7"/><path d="m475.92 133.71c-2.77-4-5.66-8.12-8.45-12.2-11.75-17.15-10.76-20.29-27.7-20.53-1.5 2.3-2.39 12.2-.13 22.14 1.89 8.35 9 14.24 9 14.24l8.48 11.49s5.19-.16 11.41-4.72a19 19 0 0 0 7.39-10.42z" fill="#37474f"/><path d="m439.17 55.37a8.45 8.45 0 0 0 -7.85-3.7l-.88 21.47-1.44 7.93.25 8.83a5 5 0 0 0 3.86-2.9c1.32-2.54 5-14.82 5-14.82 3.3-10.09 2.6-14.65 1.06-16.81z" fill="#263238"/><path d="m429.44 73.24a7.57 7.57 0 0 1 2.07-3.42c1.23-1.32 6.13-2.75 8.36 1.41s-1.53 9.65-4.43 11.33c-3.71 2.16-5.89-.78-5.89-.78l.09 19.77c-1.73 4-9.54 7.56-14.19 7-3.7-.47-7.11-3.38-3.8-7.62l-.27-5.64s-4.95 1-7.4.75c-4.07-.42-6.78-3.49-8.22-7.81-2.32-6.94-3.35-12.58-2.37-26.5 1.08-15.25 18.71-16.28 28.54-10.76s7.51 22.27 7.51 22.27z" fill="#ffa8a7"/><path d="m387.78 45.89c-.45-3.33.7-6.9 4.19-8.08a7.37 7.37 0 0 1 7.74 1.29 6.74 6.74 0 0 1 12-1.27 6.58 6.58 0 0 1 4-2.79 7.76 7.76 0 0 1 5.94 1.08c1.42 1.05 3.09 3 2.67 5.53 2.81-1.13 5.74-.19 7.83 2.29a8.85 8.85 0 0 1 2 5.37 7.16 7.16 0 0 1 -.43 3c-.4.91-1.22 1.51-1.46 2.54a7.93 7.93 0 0 0 -.53 2.84c.23 1.68.6 3.36.82 5a40.63 40.63 0 0 1 .41 4.93 2.73 2.73 0 0 1 -1.21 1.92 7.74 7.74 0 0 0 -2.11 3c-.35.72-.69 2.5-1.38 3-2.13 1.49-2.37-3.33-2.47-4.26a50.05 50.05 0 0 1 0-6.41 7.7 7.7 0 0 1 -5.67-2.6 6.64 6.64 0 0 1 -1.41-3.14 10.8 10.8 0 0 1 -.16-2c-1.39 2.3-4.62 3.24-6.92 3-3.86-.35-5.19-2-5.81-3.21a7.67 7.67 0 0 1 -1.53 3.26 8.73 8.73 0 0 1 -3.47 2 6.37 6.37 0 0 1 -6.31-1.82c-1.57 2.25-5.55 1.25-6.43.62-2-1.45-2.65-3.18-2.87-5.65s.78-5.29 3.52-6.26a9.87 9.87 0 0 1 -.95-3.18z" fill="#263238"/><path d="m411.38 95.26s8.94-2.26 12-4.1a10.39 10.39 0 0 0 4.15-4.54 14.27 14.27 0 0 1 -2.23 5.22c-2.16 3.07-13.82 5.83-13.82 5.83z" fill="#f28f8f"/><path d="m411.88 72.58a1.94 1.94 0 1 0 1.84-2.11 2 2 0 0 0 -1.84 2.11z" fill="#263238"/><path d="m408.89 87.05a2.5 2.5 0 1 0 2.36-2.73 2.57 2.57 0 0 0 -2.36 2.73z" fill="#f28f8f"/><g fill="#263238"><path d="m413.49 65.92 4.12 2a2.42 2.42 0 0 0 -1.09-3.15 2.24 2.24 0 0 0 -3.03 1.15z"/><path d="m395.57 67.65 3.51-3a2.21 2.21 0 0 0 -3.2-.33 2.43 2.43 0 0 0 -.31 3.33z"/><path d="m396.62 72.19a1.88 1.88 0 1 0 1.78-2 1.91 1.91 0 0 0 -1.78 2z"/></g><path d="m405.9 69.97-.06 11.83-6.26-1.8z" fill="#f28f8f"/><g fill="#e0e0e0"><path d="m390.19 86.52a.44.44 0 0 0 .28-.2.45.45 0 0 0 -.12-.64l-5.44-3.62a.46.46 0 0 0 -.64.13.45.45 0 0 0 .13.64l5.43 3.62a.43.43 0 0 0 .36.07z"/><path d="m389.61 88.86a.48.48 0 0 0 .35-.35.47.47 0 0 0 -.35-.56l-6.36-1.47a.46.46 0 0 0 -.56.34.47.47 0 0 0 .35.56l6.36 1.48a.74.74 0 0 0 .21 0z"/><path d="m383.7 93.09h.06l6.13-2.24a.46.46 0 1 0 -.32-.87l-6.13 2.24a.46.46 0 0 0 -.27.6.46.46 0 0 0 .53.27z"/><path d="m331.84 141.06a1.45 1.45 0 0 0 2.66-.15l4.56-11.25a1.45 1.45 0 1 0 -2.72-1l-4.57 11.25a1.45 1.45 0 0 0 .07 1.15z"/><path d="m324.33 141a1.45 1.45 0 0 0 2.75-.66l-.15-14a1.45 1.45 0 0 0 -2.89 0l.14 14a1.45 1.45 0 0 0 .15.66z"/><path d="m311.6 133.21.09.17 6.89 10a1.45 1.45 0 0 0 2 .4 1.47 1.47 0 0 0 .39-2l-6.89-10a1.44 1.44 0 0 0 -2.49 1.44z"/></g></svg>