<svg enable-background="new 0 0 512.002 512.002" viewBox="0 0 512.002 512.002" xmlns="http://www.w3.org/2000/svg"><circle cx="256.001" cy="300.138" fill="#00c3ff" r="211.862"/><circle cx="361.932" cy="414.897" fill="#00aaf0" r="35.31"/><path d="m353.105 450.207c-114.055 0-207.017-90.137-211.639-203.058 14.52-.122 26.26-11.91 26.26-26.46 0-13.028-9.426-23.801-21.818-26.013 7.758-36.932 25.001-70.372 49.252-97.49-87.345 26.15-151.02 107.096-151.02 202.951-.001 117.009 94.853 211.863 211.861 211.863 62.776 0 119.15-27.326 157.945-70.705-19.276 5.771-39.688 8.912-60.841 8.912z" fill="#00aaf0"/><path d="m467.639 308.966c.12-2.931.224-5.867.224-8.828s-.104-5.897-.224-8.828h-79.353c-.767-34.919-6.051-67.846-14.873-97.103h66.038c-3.52-6.083-7.33-11.975-11.418-17.655h-60.539c-12.275-33.154-29.352-60.428-49.483-79.033-16.916-5.171-34.761-8.149-53.181-8.913v-.107c-2.931-.12-5.867-.224-8.828-.224s-5.897.104-8.828.224v.108c-18.42.762-36.266 3.742-53.181 8.913-20.131 18.604-37.209 45.879-49.483 79.033h-60.54c-4.089 5.681-7.898 11.572-11.418 17.655h66.038c-8.822 29.258-14.108 62.185-14.873 97.103h-79.354c-.12 2.931-.224 5.867-.224 8.828s.104 5.897.224 8.828h79.354c.767 34.919 6.052 67.846 14.873 97.103h-66.037c3.52 6.083 7.33 11.975 11.418 17.655h60.537c12.275 33.154 29.353 60.428 49.483 79.033 16.916 5.171 34.761 8.149 53.181 8.913v.107c2.931.12 5.867.224 8.828.224s5.897-.104 8.828-.224v-.109c18.42-.762 36.266-3.742 53.181-8.913 20.131-18.604 37.208-45.879 49.483-79.033h60.538c4.088-5.681 7.897-11.572 11.418-17.655h-66.038c8.822-29.258 14.106-62.185 14.873-97.103h79.356zm-118.516-132.414h-84.295v-87.582c34.662 4.903 65.058 38.318 84.295 87.582zm-101.949-87.582v87.582h-84.295c19.237-49.264 49.633-82.679 84.295-87.582zm-90.492 105.237h90.492v97.103h-105.81c.787-35.264 6.272-68.309 15.318-97.103zm-15.318 114.759h105.81v97.103h-90.492c-9.046-28.795-14.531-61.839-15.318-97.103zm21.515 114.758h84.295v87.582c-34.662-4.903-65.058-38.318-84.295-87.582zm101.95 87.582v-87.582h84.295c-19.238 49.264-49.634 82.679-84.295 87.582zm90.491-105.237h-90.492v-97.103h105.811c-.787 35.264-6.273 68.308-15.319 97.103zm-90.491-114.759v-97.103h90.492c9.046 28.794 14.531 61.839 15.319 97.103z" fill="#e4eaf8"/><path d="m379.146 384.244c-5.033-2.833-10.75-4.577-16.925-4.628-2.01 9.118-4.25 18.015-6.901 26.454h-27.449c-.735 2.837-1.248 5.761-1.248 8.828 0 3.066.513 5.991 1.248 8.828h21.254c-2.617 6.702-5.442 13.111-8.455 19.197 4.499 3.42 9.79 5.773 15.609 6.716 4.066-8.171 7.838-16.794 11.214-25.913h28.502c.735-2.837 1.248-5.761 1.248-8.828s-.513-5.991-1.248-8.828h-22.583c2.129-7.063 4.029-14.36 5.734-21.826z" fill="#d5dced"/><circle cx="361.932" cy="414.897" fill="#fff082" r="17.655"/><path d="m356.041 450.099c-.984.013-1.949.108-2.936.108-5.357 0-10.651-.266-15.908-.657-18.836 34.904-44.184 57.764-72.367 61.758v-80.353c-5.553-2.55-10.937-5.393-16.22-8.396-8.681-4.938-17.01-10.417-24.872-16.49h-67.055c-9.046-28.794-14.531-61.839-15.318-97.103h11.981c-2.044-5.78-3.885-11.657-5.428-17.655h-6.553c.203-9.087.742-18.009 1.549-26.767-.707-5.729-1.12-11.544-1.379-17.4 1.223-.026 2.409-.186 3.59-.362 2.412-17.038 5.9-33.239 10.402-48.335-2.874-1.849-6.133-3.135-9.618-3.772 7.758-36.93 25.001-70.37 49.251-97.486-.433.129-.843.307-1.274.438-20.083 18.602-37.124 45.832-49.376 78.925h-60.42c-4.092 5.678-7.881 11.575-11.403 17.655h65.905c-8.822 29.258-14.108 62.185-14.873 97.103h-79.215c-.121 2.943-.365 5.855-.365 8.828 0 2.961.104 5.897.224 8.828h79.354c.767 34.919 6.052 67.845 14.873 97.103h-66.037c3.52 6.083 7.33 11.975 11.418 17.655h60.537c12.275 33.154 29.353 60.428 49.483 79.033 16.916 5.171 34.761 8.149 53.181 8.913v.107c2.931.12 5.867.224 8.828.224 2.963 0 5.896-.119 8.828-.239v-.096c18.457-.775 36.324-3.801 53.271-8.996 14.452-13.383 27.291-31.286 37.942-52.571zm-193.162-26.375h84.295v87.582c-34.662-4.903-65.058-38.318-84.295-87.582z" fill="#d5dced"/><path d="m141.242 0c43.878 0 79.448 35.57 79.448 79.448 0 52.966-61.793 88.276-79.448 141.241-17.655-52.966-79.448-88.276-79.448-141.241 0-43.878 35.57-79.448 79.448-79.448z" fill="#ffdc64"/><path d="m141.242 0c-43.878 0-79.448 35.57-79.448 79.448 0 52.966 61.793 88.276 79.448 141.241-7.847-52.966-35.31-88.276-35.31-141.241 0-43.878 15.809-79.448 35.31-79.448z" fill="#ffc850"/><path d="m150.07 77.484v-23.159c5.478 1.754 8.828 4.863 8.828 7.192 0 4.879 3.948 8.828 8.828 8.828 4.879 0 8.828-3.948 8.828-8.828 0-12.414-11.115-22.464-26.483-25.316v-.89c0-4.879-3.948-8.828-8.828-8.828-4.879 0-8.828 3.948-8.828 8.828v.89c-15.368 2.852-26.483 12.903-26.483 25.316 0 17.374 14.579 24.587 26.483 28.723v23.159c-5.478-1.754-8.828-4.863-8.828-7.192 0-4.879-3.948-8.828-8.828-8.828-4.879 0-8.828 3.948-8.828 8.828 0 12.414 11.115 22.464 26.483 25.316v.89c0 4.879 3.948 8.828 8.828 8.828 4.879 0 8.828-3.948 8.828-8.828v-.89c15.368-2.852 26.483-12.904 26.483-25.316 0-17.374-14.579-24.587-26.483-28.723zm-26.483-15.967c0-2.329 3.35-5.438 8.828-7.192v16.904c-7.175-3.254-8.828-6.041-8.828-9.712zm26.483 51.882v-16.904c7.175 3.255 8.828 6.041 8.828 9.711 0 2.33-3.35 5.439-8.828 7.193z" fill="#fff"/></svg>